<svg xmlns="http://www.w3.org/2000/svg" width="200" height="38" viewBox="0 0 200 38"><g fill-rule="evenodd" clip-rule="evenodd"><path fill="#003B6F" d="M14.526 29.248l4.034.208c1.032.04 2.46-.04 2.187 1.37-.363 1.874-3.398 1.664-4.647 1.664-1.372 0-2.776-.04-4.044-.372-.84-.166-1.55-.584-1.354-1.582.24-1.246 1.38-1.33 2.335-1.33l1.49.042zm1.495-6.194c-.75 0-2.303.082-2.093-.998.203-1.04 1.574-1.04 2.28-1.04l.867.042.947.04c4.283 0 9.957-1.163 10.99-6.484.364-1.872-.212-3.617-1.44-4.784.56-.747 1.733-.788 2.48-.788l2.02.082 1.316-5.696-.533-.042-2.387-.125c-3.286 0-5.194 1.914-6.25 4.99-1.225-.332-2.538-.415-3.87-.415-4.323 0-10.62 1.164-11.686 6.652-.477 2.453.472 3.992 2.498 4.908-2.234.787-4.51 2.244-4.988 4.698-.29 1.496.306 2.494 1.302 3.367-2 .664-3.482 2.08-3.878 4.118-.968 4.99 6.966 5.236 10.5 5.236 2.495 0 5.795-.082 8.244-.914 2.88-.915 5.29-2.828 5.88-5.862.387-1.995-.04-4.076-1.428-5.28-1.28-1.122-3.185-1.372-5-1.455l-5.77-.25zm2.56-5.906c-1.703 0-2.448-.873-2.117-2.578.298-1.538 1.38-2.62 2.96-2.62 1.704 0 2.334 1.04 2.02 2.662-.282 1.455-1.323 2.536-2.862 2.536zM42.793 8.25H34.56l-4.125 21.247h8.232L42.793 8.25zM44.287.557h-8.232l-1.1 5.655h8.234L44.286.557zM65.778 8.25h-5.945l-4.737 8.982-1.185 2.245L52.43 8.25h-8.606l3.817 21.247h6.237zM78.128 21.888c-.688 1.83-1.873 2.58-3.744 2.58-2.494 0-3.003-1.665-2.435-3.95h14.22l.218-1.123c1.356-6.986-2.078-11.56-9.15-11.56-3.032 0-6.478 1.04-9.077 3.284-2.39 2.037-4.12 5.156-4.676 8.024-.59 3.036.052 5.947 1.942 7.984 2 2.12 4.906 2.784 8.024 2.784 5.03 0 10.067-2.37 12.358-7.525l-7.68-.5zm-5.41-5.53c.294-1.955 1.5-3.66 3.662-3.66 2.326 0 2.686 1.58 2.28 3.66h-5.943zM91.24 8.25l-4.125 21.247h8.232l2.38-12.265c.34-1.747.928-3.702 3.215-3.702 1.787 0 1.44 1.79 1.19 3.077l-2.502 12.89h8.232l2.542-13.096c.428-2.203.896-4.615-.093-6.362-.934-1.62-3.108-2.203-5.103-2.203-2.58 0-5.225.997-6.69 3.41h-.084l.58-2.995H91.24z"/><path fill="#0092DD" d="M120.913 29.248l4.036.208c1.03.04 2.46-.04 2.185 1.37-.362 1.874-3.398 1.664-4.646 1.664-1.376 0-2.78-.04-4.046-.372-.84-.166-1.55-.584-1.354-1.582.24-1.246 1.378-1.33 2.335-1.33l1.488.042zm1.496-6.194c-.75 0-2.307.082-2.096-.998.203-1.04 1.574-1.04 2.28-1.04l.868.042.947.04c4.28 0 9.952-1.163 10.99-6.484.36-1.872-.216-3.617-1.445-4.784.562-.747 1.735-.788 2.482-.788l2.02.082 1.313-5.696-.53-.042-2.387-.125c-3.285 0-5.194 1.914-6.248 4.99-1.227-.332-2.54-.415-3.87-.415-4.324 0-10.62 1.164-11.687 6.652-.48 2.453.472 3.992 2.497 4.908-2.233.787-4.51 2.244-4.985 4.698-.292 1.496.305 2.494 1.3 3.367-2 .664-3.483 2.08-3.88 4.118-.966 4.99 6.968 5.236 10.504 5.236 2.492 0 5.794-.082 8.242-.914 2.88-.915 5.29-2.828 5.88-5.862.387-1.995-.043-4.076-1.428-5.28-1.28-1.122-3.187-1.372-4.998-1.455l-5.77-.25zm2.558-5.906c-1.703 0-2.45-.873-2.117-2.578.3-1.538 1.38-2.62 2.962-2.62 1.704 0 2.336 1.04 2.02 2.662-.283 1.455-1.324 2.536-2.864 2.536zM157.863 29.497c-.336-1.496-.066-3.076.236-4.655l1.446-7.444c.588-3.034 1.45-5.78-.953-7.732-1.787-1.498-4.924-1.83-7.42-1.83-4.782 0-10.08 1.37-12.353 6.65l7.432.71c.597-1.79 2.082-2.372 3.705-2.372 1.995 0 2.348.748 1.976 2.66l-.032.168c-2.816.166-5.75.5-8.614 1.33-3.13.915-6.186 3.162-6.84 6.53-.824 4.24 2.21 6.4 6.157 6.4 2.91 0 5.458-.914 7.6-3.366-.196.998-.307 1.996-.282 2.95h7.943zm-6.8-9.52c-.454 2.328-1.005 4.947-4.122 4.947-1.288 0-2.05-.58-1.782-1.955.5-2.577 3.947-3.2 5.984-3.41l-.08.416zM172.87 8.25h-8.232l-4.126 21.247h8.233L172.87 8.25zm1.493-7.693h-8.23l-1.098 5.655h8.232l1.096-5.655zM176.854 8.25l-4.126 21.247h8.233l2.384-12.265c.338-1.747.924-3.702 3.212-3.702 1.786 0 1.44 1.79 1.19 3.077l-2.504 12.89h8.235L196.02 16.4c.43-2.204.895-4.616-.096-6.363-.932-1.62-3.105-2.203-5.104-2.203-2.576 0-5.224.997-6.69 3.41h-.084l.58-2.995h-7.772z"/></g></svg>